HIERARCHY
ROOT Pelvis
{
	OFFSET 0.000000 0.000000 0.000000
	CHANNELS 6 Xposition Yposition Zposition Zrotation Yrotation Xrotation 
	JOINT Left_hip
	{
		OFFSET 0.067986 -0.089946 -0.007639
		CHANNELS 3 Zrotation Yrotation Xrotation
		JOINT Left_knee
		{
			OFFSET 0.036308 -0.388288 -0.004016
			CHANNELS 3 Zrotation Yrotation Xrotation
			JOINT Left_ankle
			{
				OFFSET -0.012264 -0.413250 -0.042878
				CHANNELS 3 Zrotation Yrotation Xrotation
				JOINT Left_foot
				{
					OFFSET 0.024043 -0.058563 0.118570
					CHANNELS 3 Zrotation Yrotation Xrotation
					End Site
					{
						OFFSET 0.000000 0.000000 0.000000
					}
				}
			}
		}
	}
	JOINT Right_hip
	{
		OFFSET -0.065648 -0.089374 -0.003858
		CHANNELS 3 Zrotation Yrotation Xrotation
		JOINT Right_knee
		{
			OFFSET -0.042132 -0.395021 -0.006361
			CHANNELS 3 Zrotation Yrotation Xrotation
			JOINT Right_ankle
			{
				OFFSET 0.014805 -0.413264 -0.041054
				CHANNELS 3 Zrotation Yrotation Xrotation
				JOINT Right_foot
				{
					OFFSET -0.021758 -0.049013 0.121832
					CHANNELS 3 Zrotation Yrotation Xrotation
					End Site
					{
						OFFSET 0.000000 0.000000 0.000000
					}
				}
			}
		}
	}
	JOINT Spine1
	{
		OFFSET -0.002755 0.104406 -0.022277
		CHANNELS 3 Zrotation Yrotation Xrotation
		JOINT Spine2
		{
			OFFSET 0.004136 0.129393 -0.002186
			CHANNELS 3 Zrotation Yrotation Xrotation
			JOINT Spine3
			{
				OFFSET 0.001906 0.049304 0.025578
				CHANNELS 3 Zrotation Yrotation Xrotation
				JOINT Neck
				{
					OFFSET -0.004620 0.210958 -0.044063
					CHANNELS 3 Zrotation Yrotation Xrotation
					JOINT Head
					{
						OFFSET 0.003833 0.067393 0.052435
						CHANNELS 3 Zrotation Yrotation Xrotation
						End Site
						{
							OFFSET 0.000000 0.000000 0.000000
						}
					}
				}
				JOINT Left_collar
				{
					OFFSET 0.070771 0.116689 -0.037192
					CHANNELS 3 Zrotation Yrotation Xrotation
					JOINT Left_shoulder
					{
						OFFSET 0.080652 0.031596 -0.005617
						CHANNELS 3 Zrotation Yrotation Xrotation
						JOINT Left_elbow
						{
							OFFSET 0.262654 -0.015020 -0.027939
							CHANNELS 3 Zrotation Yrotation Xrotation
							JOINT Left_wrist
							{
								OFFSET 0.250438 0.010062 -0.000990
								CHANNELS 3 Zrotation Yrotation Xrotation
								JOINT Left_palm
								{
									OFFSET 0.081198 -0.010037 -0.013706
									CHANNELS 3 Zrotation Yrotation Xrotation
									End Site
									{
										OFFSET 0.000000 0.000000 0.000000
									}
								}
							}
						}
					}
				}
				JOINT Right_collar
				{
					OFFSET -0.072972 0.115556 -0.040762
					CHANNELS 3 Zrotation Yrotation Xrotation
					JOINT Right_shoulder
					{
						OFFSET -0.082917 0.031841 -0.006673
						CHANNELS 3 Zrotation Yrotation Xrotation
						JOINT Right_elbow
						{
							OFFSET -0.252882 -0.013790 -0.020410
							CHANNELS 3 Zrotation Yrotation Xrotation
							JOINT Right_wrist
							{
								OFFSET -0.255570 0.009163 -0.005138
								CHANNELS 3 Zrotation Yrotation Xrotation
								JOINT Right_palm
								{
									OFFSET -0.080804 -0.007282 -0.010415
									CHANNELS 3 Zrotation Yrotation Xrotation
									End Site
									{
										OFFSET 0.000000 0.000000 0.000000
									}
								}
							}
						}
					}
				}
			}
		}
	}
}
MOTION
Frames: 12
Frame Time: 0.100000
-0.377030 -0.107771 0.626758 171.370972 12.812338 22.055231 11.244076 4.268720 -61.298592 -9.527121 10.509369 25.234158 -7.134931 0.554695 -3.879636 8.094220 11.297537 -0.824825 -7.465633 -8.324492 -48.044336 6.533344 -4.757031 19.165769 20.144747 0.433618 -6.978454 -25.290590 8.278792 -0.260286 2.607923 3.934933 54.181118 -5.064141 -3.115958 -1.979358 2.974763 2.505416 -1.877427 -14.250775 0.382277 -30.039264 11.029721 -8.695745 -18.955201 1.723575 -42.576504 -11.655514 -28.319557 -33.455768 2.796141 18.129423 -38.891283 -42.110185 9.460098 -3.294348 -39.625856 -5.243895 -1.573146 4.125002 -6.401261 42.535777 -8.147711 20.208858 29.587323 -8.273735 -20.691923 41.109606 -41.020888 -7.538255 1.892960 -25.078521 10.829373 8.105188 -7.739693 
-0.375237 -0.112086 0.635073 171.099654 12.670391 16.910581 11.148102 3.795587 -54.764541 -9.449256 8.611936 24.569200 -7.129842 0.905876 -4.680555 8.655333 11.206140 -1.336534 -6.891375 -7.988830 -41.206457 6.440356 -3.760628 17.573999 20.194968 0.436448 -6.525425 -25.211579 7.966518 -1.224668 1.541269 4.739637 49.349631 -4.584125 -3.066906 -0.883754 2.804511 2.250757 -1.804856 -13.135550 1.195916 -30.295398 10.459382 -8.998882 -18.026099 -1.323645 -39.162591 -8.713983 -32.395863 -30.852949 6.643205 16.739596 -44.662782 -37.654084 9.080954 -3.650030 -42.568692 -6.245626 -1.529393 3.874293 -2.208995 39.709579 -5.542707 27.281590 27.757466 -2.058367 -21.903129 46.799002 -40.513081 -7.164627 2.095246 -30.143739 12.070209 8.222684 -7.823304 
-0.374720 -0.118705 0.646521 170.797033 12.984142 11.546756 10.751187 3.152094 -47.448315 -9.233710 5.958309 23.143208 -7.084381 1.497338 -5.267262 9.022762 11.194474 -1.964353 -6.439208 -7.882386 -33.930843 6.157509 -2.458402 16.088782 20.585927 0.197643 -5.396482 -25.104908 7.457980 -2.536362 0.607944 5.196992 44.736418 -3.993386 -3.039545 -0.136509 2.822104 1.911335 -1.604445 -11.864013 1.859150 -30.043669 9.974360 -9.052126 -17.240646 -2.787485 -35.288194 -6.771636 -35.848529 -28.449982 9.948490 14.236062 -50.550236 -31.786303 8.372803 -4.282082 -45.489920 -6.447992 -1.243226 4.142708 0.366210 36.336837 -4.156626 33.771814 25.350042 3.856734 -20.477511 51.920819 -37.199354 -6.620249 2.252285 -33.721892 12.667842 8.138321 -7.676029 
-0.373389 -0.124603 0.658043 170.257000 13.729055 4.797934 10.200211 3.397249 -38.608133 -9.386263 2.461823 21.659906 -7.113199 1.606618 -6.340888 8.536232 11.523248 -1.996853 -5.863074 -8.041202 -26.122781 5.731975 -1.143216 16.547895 20.615667 -0.167510 -4.723379 -23.940696 7.258522 -3.820103 0.132792 5.197673 42.984515 -3.506935 -2.808773 0.907982 2.961310 1.695050 -1.879524 -10.593001 2.461841 -30.182498 9.408534 -8.681555 -16.687731 -5.072009 -32.513212 -5.440193 -36.211336 -26.123812 11.828374 11.550813 -56.357995 -27.331362 8.067761 -4.861336 -47.259367 -6.407333 -1.044330 4.476901 3.481928 33.793119 -3.133156 36.412734 21.219462 8.142541 -18.942743 58.467908 -34.866303 -6.696412 2.601930 -35.929695 13.103372 8.158291 -7.271509 
-0.371032 -0.126355 0.665230 170.345923 14.149488 0.382919 9.872419 3.348661 -32.919667 -9.644794 0.306284 20.873661 -6.481787 1.982027 -7.406990 8.059150 12.164386 -2.403022 -6.254565 -7.996439 -22.806638 5.844161 -0.539966 20.152841 20.522024 -0.554336 -5.136610 -23.300605 7.609140 -5.019411 -0.822653 5.351079 39.899701 -3.065348 -2.505020 2.177982 2.677706 1.368836 -1.959479 -9.285396 3.973081 -30.027994 8.572974 -8.682729 -15.904696 -6.915742 -30.049421 -4.220505 -35.373514 -24.843498 12.876114 9.715229 -61.465510 -24.436163 7.630647 -5.243420 -48.654911 -6.723734 -0.951250 4.405432 6.480626 31.178817 -2.004980 37.838131 18.457164 11.103607 -20.878418 63.808068 -36.526690 -7.186908 2.728633 -39.040641 13.929183 8.187851 -7.180410 
-0.365881 -0.128437 0.670765 170.415065 14.321705 -3.438237 9.853031 3.272429 -28.108457 -9.521141 -1.441614 20.213867 -6.215547 2.481187 -7.951907 7.962644 12.417068 -2.658354 -6.313316 -7.490768 -20.186272 5.734229 0.028897 23.321938 20.023208 -0.812126 -5.150756 -22.204133 7.560195 -5.815800 -1.886781 5.431465 37.168277 -2.518146 -2.422488 2.934183 2.582498 1.049426 -1.843638 -7.806882 5.601026 -27.914412 8.043443 -8.515966 -14.168167 -7.636172 -27.831832 -3.365757 -35.668669 -23.846937 13.675791 8.131392 -64.648471 -22.692071 7.628880 -4.801388 -51.320483 -6.910422 -0.930592 4.222805 8.100053 29.147379 -1.589176 40.482005 17.723467 13.490180 -24.515317 66.413600 -40.745121 -8.410865 1.883568 -43.123648 14.736058 8.251148 -7.269827 
-0.357990 -0.130637 0.674226 170.779323 14.595903 -6.074109 9.910952 3.151138 -23.765984 -9.410634 -3.083060 17.620001 -6.051483 2.982625 -7.695613 7.786229 12.501582 -2.684453 -6.330228 -6.591703 -18.164707 5.830547 1.288216 24.976846 18.835033 -1.226051 -5.964640 -20.554232 7.743616 -5.932760 -2.846013 5.290259 34.260787 -2.039717 -2.343348 3.794418 2.337340 0.913952 -1.606408 -5.912978 6.670090 -25.001176 7.614364 -8.996529 -11.419517 -8.448633 -25.953802 -2.768286 -35.898006 -23.379987 14.341280 6.275586 -66.303580 -19.973777 7.536569 -4.300533 -51.810863 -6.961517 -1.073653 4.132920 9.798962 28.012268 -1.211750 42.214392 18.627228 15.201054 -23.297362 66.246383 -38.400761 -8.626156 0.837175 -41.145761 14.820801 8.451657 -7.430026 
-0.346749 -0.132593 0.676864 170.917884 15.056107 -8.286154 10.124466 3.560583 -20.499142 -8.876993 -4.409240 15.726083 -6.787520 2.778930 -6.878240 7.760443 12.793711 -3.130374 -5.790781 -6.368347 -14.965091 5.542561 1.493809 22.459524 16.784110 -1.088268 -8.412131 -18.328736 7.232062 -5.054667 -2.674540 5.084015 32.619745 -1.818422 -2.085776 4.267439 2.464191 0.903982 -1.544549 -4.182375 6.615549 -21.840448 7.541597 -9.086561 -9.780153 -9.122007 -23.923695 -2.261106 -37.786777 -22.666053 15.599404 7.120626 -68.808897 -19.529487 8.782145 -3.135669 -53.809843 -6.211898 -0.877947 4.742781 10.110023 27.075010 -1.063462 43.659727 19.269349 16.220456 -22.084059 66.812990 -37.475007 -11.250171 -0.731026 -42.476038 14.757042 8.264969 -7.048538 
-0.331153 -0.134176 0.678888 171.606257 15.075650 -9.292884 10.448573 3.778818 -17.737676 -8.241607 -5.002092 12.470629 -7.837444 2.816983 -5.372792 8.207255 13.009434 -3.406872 -5.128705 -6.279450 -12.780458 5.303002 1.502548 18.129509 15.397586 -1.135336 -10.017297 -16.686995 6.683257 -4.180506 -2.578358 4.918049 30.539021 -1.689638 -1.607409 5.005711 2.624914 0.976325 -1.373751 -2.721181 7.045991 -20.887276 7.472470 -8.160806 -9.633580 -10.436186 -20.918966 -1.709419 -39.555764 -20.926834 17.026784 12.252840 -74.108710 -22.847878 9.795133 -2.591373 -56.629011 -5.810487 -0.858894 5.603160 10.807572 25.285776 -0.767105 44.402945 19.427571 17.292118 -26.312995 69.921355 -40.660462 -12.553356 -1.049762 -43.188031 14.594332 8.032022 -6.498207 
-0.309643 -0.134370 0.681508 173.042989 15.741471 -9.869500 10.265520 3.772573 -14.101219 -7.361731 -5.972424 6.688613 -8.823497 3.003140 -2.782645 8.297309 13.351453 -3.754658 -3.928727 -5.718789 -11.261914 5.321563 1.873096 16.064586 14.175411 -1.084364 -9.852153 -15.379953 6.360543 -3.943411 -2.556783 4.313180 28.918559 -1.682496 -1.149500 5.775115 2.800292 0.828097 -1.438071 -2.249541 7.817476 -21.203539 7.042575 -6.422919 -10.967594 -11.962547 -17.857139 -1.131364 -41.166212 -18.307162 18.369777 20.816479 -79.787767 -29.394090 10.521765 -2.574206 -58.403843 -5.485655 -0.966996 5.662717 11.506694 23.129139 -0.519616 45.222608 18.232251 19.150497 -31.528111 75.366678 -43.910090 -13.577631 -1.005340 -43.347400 14.750634 7.856034 -6.144076 
-0.282807 -0.132718 0.685495 174.451209 16.944150 -11.288140 10.353305 4.138852 -10.703240 -6.722617 -7.064887 2.967909 -10.775523 3.236185 -0.874806 9.900320 13.559600 -4.232935 -3.881720 -5.086890 -10.026883 5.453739 2.171133 17.165148 12.979493 -2.551362 -11.310747 -14.383200 6.527405 -3.973645 -2.064571 3.312584 27.974284 -1.423797 -0.938360 7.027922 2.876427 0.513632 -1.692168 -2.124799 8.494689 -22.077047 6.000600 -5.212516 -11.706950 -14.037492 -16.052206 -0.314467 -40.874818 -16.041906 19.118168 26.934626 -83.230006 -35.488027 10.016524 -3.230770 -60.083617 -4.921826 -0.846392 5.490343 13.111644 21.943313 0.120150 44.705570 16.822398 20.914728 -37.783204 79.802219 -49.857879 -13.393510 -0.629518 -44.088370 14.020212 7.345847 -5.769364 
-0.255845 -0.131724 0.694292 175.246175 18.526052 -13.532827 11.040960 4.116985 -10.959691 -7.004819 -7.913072 7.877258 -12.004743 2.850754 -1.389317 11.117522 13.402560 -5.497428 -3.980848 -6.639554 -6.625094 6.697110 2.067137 16.528905 12.049006 -2.233186 -12.804117 -13.957624 6.734293 -3.389452 -0.970017 3.207937 26.541257 -0.663041 -1.523322 7.584492 3.190538 0.433070 -1.470539 -2.358495 9.247990 -21.466948 4.907676 -4.333336 -11.097242 -14.500177 -15.744769 -0.159301 -40.911332 -15.531205 19.707584 14.627867 -84.217549 -23.813949 9.182488 -3.431709 -62.045258 -5.351495 -0.776580 5.988847 13.718282 21.091868 0.283134 43.394842 16.342509 21.058718 -38.007410 82.386567 -50.676868 -12.840758 -0.849350 -46.335643 14.517635 7.413259 -5.365231 
